<?xml version="1.0" encoding="iso-8859-1"?>
<!-- Generator: Adobe Illustrator 19.0.0, SVG Export Plug-In . SVG Version: 6.00 Build 0)  -->
<svg version="1.1" id="Capa_1" xmlns="http://www.w3.org/2000/svg" xmlns:xlink="http://www.w3.org/1999/xlink" x="0px" y="0px"
	 viewBox="0 0 512.001 512.001" style="enable-background:new 0 0 512.001 512.001;" xml:space="preserve">
<g>
	<g transform="translate(1 15)">
		<g>
			<path style="fill:#FEC108;" d="M124.586,353.385l-44.8,85.76c-2.075,4.012-5.663,7.033-9.971,8.394
				c-4.307,1.361-8.98,0.951-12.984-1.141c-5.639-2.975-9.182-8.814-9.216-15.189c0.033-2.734,0.705-5.423,1.963-7.851
				l45.141-86.528C104.197,343.169,114.188,348.706,124.586,353.385z"/>
			<path style="fill:#FEC108;" d="M453.119,446.739c-2.428,1.258-5.116,1.93-7.851,1.963c-6.353-0.037-12.165-3.583-15.104-9.216
				l-44.971-86.101c6.806-3.023,13.444-6.413,19.883-10.155v-0.085c3.413-2.048,6.741-4.096,9.899-6.315l45.397,86.869
				C464.714,432.066,461.471,442.368,453.119,446.739z"/>
		</g>
		<path style="fill:#D84315;" d="M493.823,195.689c0.256,9.131,0.341,96.683-78.848,149.675c-3.157,2.219-6.485,4.267-9.899,6.315
			v0.085c-6.439,3.742-13.076,7.132-19.883,10.155c-3.499,1.621-7.083,3.072-10.837,4.523
			c-32.788,12.1-67.372,18.619-102.315,19.285h-34.133c-38.96-0.522-77.447-8.607-113.323-23.808
			c-10.398-4.678-20.389-10.216-29.867-16.555c-83.285-56.149-78.592-150.443-78.592-150.443c0-40.363,97.792-73.472,221.781-76.203
			c5.632-0.171,11.349-0.256,17.067-0.256c132.011,0,238.933,34.219,238.933,76.459
			C493.923,195.179,493.894,195.439,493.823,195.689z"/>
		<path style="fill:#FF5722;" d="M459.69,195.689c0.256,9.131,0.341,96.683-78.848,149.675c-3.157,2.219-6.485,4.267-9.899,6.315
			v0.085c-6.439,3.742-13.076,7.132-19.883,10.155c-3.499,1.621-7.083,3.072-10.837,4.523
			c-32.788,12.1-67.372,18.619-102.315,19.285c-38.96-0.522-77.447-8.607-113.323-23.808c-10.398-4.678-20.389-10.216-29.867-16.555
			c-83.285-56.149-78.592-150.443-78.592-150.443c0-40.363,97.792-73.472,221.781-76.203
			c124.075,2.731,221.867,35.84,221.867,76.203C459.789,195.179,459.76,195.439,459.69,195.689z"/>
		<path style="fill:#C52828;" d="M493.909,194.921c0.014,0.259-0.015,0.518-0.085,0.768
			c-1.195,41.899-107.605,75.691-238.848,75.691c-4.096,0-8.192,0-12.288-0.085h-1.109
			c-125.696-2.219-225.451-35.584-225.451-76.373s99.84-74.155,225.536-76.373h1.024c4.096-0.085,8.192-0.085,12.288-0.085
			C386.986,118.462,493.909,152.681,493.909,194.921z"/>
		<path style="fill:#F44335;" d="M468.309,194.921c0.014,0.259-0.015,0.518-0.085,0.768
			c-1.195,40.448-100.437,73.387-225.536,75.605h-1.109c-125.696-2.219-225.451-35.584-225.451-76.373s99.84-74.155,225.536-76.373
			h1.024C368.469,120.766,468.309,154.131,468.309,194.921z"/>
		<path style="fill:#FEC108;" d="M254.975,343.401L254.975,343.401c9.426,0,17.067,7.641,17.067,17.067v110.933
			c0,9.426-7.641,17.067-17.067,17.067l0,0c-9.426,0-17.067-7.641-17.067-17.067V360.467
			C237.909,351.042,245.55,343.401,254.975,343.401z"/>
	</g>
	<g>
		<path d="M256,124.959c-119.954,0-247.442,29.783-247.442,84.983c0,0.095,0.02,0.186,0.02,0.281
			c-0.09,47.528,17.439,93.403,49.201,128.761c8.169,8.873,17.189,16.924,26.931,24.036l-41.76,80.047
			c-3.12,6.016-3.72,13.026-1.668,19.485c2.052,6.459,6.589,11.837,12.609,14.948c3.624,1.895,7.652,2.885,11.742,2.883
			c9.546,0.011,18.304-5.293,22.717-13.758l41.158-78.788c32.23,12.524,66.315,19.61,100.866,20.97v77.593
			c0,14.138,11.462,25.6,25.6,25.6c14.139,0,25.6-11.462,25.6-25.6v-77.595c33.084-1.358,65.751-7.897,96.808-19.38
			c1.299-0.492,2.561-1.13,3.854-1.65l41.383,79.233c4.409,8.434,13.128,13.732,22.646,13.758c4.131-0.039,8.194-1.052,11.858-2.958
			c12.442-6.613,17.258-21.998,10.808-34.525l-41.892-80.162c48.229-35.788,76.571-92.374,76.346-152.431
			c0.005-0.252,0.054-0.495,0.054-0.748C503.442,154.742,375.954,124.959,256,124.959z M256,142.025
			c135.7,0,230.283,35.757,230.371,67.872c-0.001,0.155-0.074,0.289-0.067,0.445l0.009,0.274
			c-1.307,31.95-95.497,67.243-230.314,67.243c-135.763,0-230.375-35.792-230.375-67.917S120.238,142.025,256,142.025z
			 M73.217,458.734c-2.146,4.144-7.235,5.779-11.392,3.658c-2.041-1.021-3.583-2.824-4.276-4.999
			c-0.693-2.175-0.477-4.537,0.597-6.551l40.842-78.284c4.81,2.919,9.791,5.667,14.943,8.244L73.217,458.734z M264.509,486.401
			c0,4.713-3.821,8.533-8.533,8.533c-4.713,0-8.533-3.821-8.533-8.533V375.467c0-4.713,3.821-8.533,8.533-8.533
			c4.713,0,8.533,3.82,8.533,8.533V486.401z M453.804,451.176c2.188,4.127,0.631,9.247-3.483,11.458
			c-1.995,1.141-4.374,1.404-6.571,0.729s-4.016-2.231-5.025-4.296l-40.891-78.289c4.229-2.108,8.448-4.253,12.541-6.636
			c0.338-0.199,0.661-0.422,0.967-0.667c0.482-0.285,0.922-0.59,1.398-0.877L453.804,451.176z M401.763,359.309
			c-0.317,0.189-0.622,0.398-0.912,0.625c-9.154,5.272-18.713,9.806-28.588,13.558c-29.102,10.74-59.696,16.89-90.688,18.229
			v-16.254c0-14.138-11.461-25.6-25.6-25.6c-14.138,0-25.6,11.462-25.6,25.6v16.108c-70.624-4.135-124.493-25.498-159.842-63.933
			c-20.83-23.091-35.029-51.384-41.094-81.885c40.973,32.142,135.897,49.168,226.56,49.168c90.657,0,185.574-17.023,226.552-49.161
			C473.231,293.482,443.788,334.862,401.763,359.309z"/>
		<path d="M68.242,230.401c2.264,0.003,4.435-0.897,6.033-2.5l42.667-42.667c3.281-3.341,3.256-8.701-0.054-12.012
			c-3.311-3.311-8.671-3.335-12.012-0.054l-42.667,42.667c-2.44,2.44-3.169,6.11-1.849,9.298
			C61.68,228.321,64.791,230.4,68.242,230.401z"/>
		<path d="M96.342,244.967c1.6,1.601,3.77,2.5,6.033,2.5c2.263,0,4.433-0.899,6.033-2.5l68.267-68.267
			c3.296-3.338,3.279-8.711-0.038-12.029c-3.317-3.317-8.691-3.334-12.029-0.038l-68.267,68.267c-1.601,1.6-2.5,3.77-2.5,6.033
			S94.742,243.367,96.342,244.967z"/>
		<path d="M139.009,253.5c1.6,1.601,3.77,2.5,6.033,2.5c2.263,0,4.433-0.899,6.033-2.5l85.333-85.333
			c3.296-3.338,3.279-8.711-0.038-12.029c-3.317-3.317-8.691-3.334-12.029-0.038l-85.333,85.333c-1.601,1.6-2.5,3.77-2.5,6.033
			C136.509,249.73,137.408,251.9,139.009,253.5z"/>
		<path d="M181.676,262.034c1.6,1.601,3.77,2.5,6.033,2.5c2.263,0,4.433-0.899,6.033-2.5l93.867-93.867
			c2.178-2.151,3.037-5.304,2.251-8.262c-0.786-2.958-3.097-5.269-6.055-6.055c-2.958-0.786-6.111,0.073-8.262,2.251l-93.867,93.867
			c-1.601,1.6-2.5,3.77-2.5,6.033S180.075,260.434,181.676,262.034z"/>
		<path d="M232.876,262.034c1.6,1.601,3.77,2.5,6.033,2.5s4.433-0.899,6.033-2.5l85.333-85.333c2.178-2.151,3.037-5.304,2.251-8.262
			c-0.786-2.958-3.097-5.269-6.055-6.055s-6.111,0.073-8.262,2.251l-85.333,85.333c-1.601,1.6-2.5,3.77-2.5,6.033
			S231.275,260.434,232.876,262.034z"/>
		<path d="M284.076,262.034c1.6,1.601,3.77,2.5,6.033,2.5s4.433-0.899,6.033-2.5l76.8-76.8c2.178-2.151,3.037-5.304,2.251-8.262
			c-0.786-2.958-3.097-5.269-6.055-6.055c-2.958-0.786-6.111,0.073-8.262,2.251l-76.8,76.8c-1.601,1.6-2.5,3.77-2.5,6.033
			S282.475,260.434,284.076,262.034z"/>
		<path d="M343.809,253.5c1.6,1.601,3.77,2.5,6.033,2.5s4.433-0.899,6.033-2.5l68.267-68.267c2.178-2.151,3.037-5.304,2.251-8.262
			c-0.786-2.958-3.097-5.269-6.055-6.055c-2.958-0.786-6.111,0.073-8.262,2.251l-68.267,68.267c-1.601,1.6-2.5,3.77-2.5,6.033
			C341.309,249.73,342.208,251.9,343.809,253.5z"/>
		<path d="M403.542,244.967c1.6,1.601,3.77,2.5,6.033,2.5s4.433-0.899,6.033-2.5l34.133-34.133c2.178-2.151,3.037-5.304,2.251-8.262
			c-0.786-2.958-3.097-5.269-6.055-6.055c-2.958-0.786-6.111,0.073-8.262,2.251l-34.133,34.133c-1.601,1.6-2.5,3.77-2.5,6.033
			S401.942,243.367,403.542,244.967z"/>
		<path d="M229.2,14.009c1.956-2.339,2.516-5.543,1.469-8.406c-1.047-2.863-3.542-4.95-6.546-5.475
			c-3.003-0.525-6.058,0.593-8.014,2.931l-20.488,24.5c-10.507,12.539-10.568,30.791-0.146,43.4l0.162,0.2
			c5.249,6.271,5.251,15.402,0.004,21.675l-3.425,4.092c-1.956,2.337-2.517,5.54-1.471,8.403c1.046,2.863,3.54,4.95,6.542,5.475
			c3.002,0.525,6.056-0.591,8.012-2.928l3.429-4.092c10.502-12.537,10.565-30.782,0.15-43.392l-0.167-0.208
			c-5.254-6.27-5.254-15.405,0-21.675L229.2,14.009z"/>
		<path d="M280.4,14.009c3.024-3.615,2.544-8.997-1.071-12.021c-3.615-3.024-8.997-2.544-12.021,1.071l-20.488,24.5
			c-10.507,12.539-10.568,30.791-0.146,43.4l0.162,0.2c5.249,6.271,5.251,15.402,0.004,21.675l-3.425,4.092
			c-1.956,2.337-2.517,5.54-1.471,8.403c1.046,2.863,3.54,4.95,6.542,5.475c3.002,0.525,6.056-0.591,8.012-2.928l3.429-4.092
			c10.502-12.537,10.565-30.782,0.15-43.392l-0.167-0.208c-5.254-6.27-5.254-15.405,0-21.675L280.4,14.009z"/>
		<path d="M331.6,14.009c3.024-3.615,2.544-8.997-1.071-12.021c-3.615-3.024-8.997-2.544-12.021,1.071l-20.488,24.5
			c-10.507,12.539-10.568,30.791-0.146,43.4l0.162,0.2c5.249,6.271,5.251,15.402,0.004,21.675l-3.425,4.092
			c-3.024,3.613-2.546,8.993,1.067,12.017c3.613,3.024,8.993,2.546,12.017-1.067l3.429-4.092
			c10.502-12.537,10.565-30.782,0.15-43.392l-0.167-0.208c-5.254-6.27-5.254-15.405,0-21.675L331.6,14.009z"/>
	</g>
</g>
<g>
</g>
<g>
</g>
<g>
</g>
<g>
</g>
<g>
</g>
<g>
</g>
<g>
</g>
<g>
</g>
<g>
</g>
<g>
</g>
<g>
</g>
<g>
</g>
<g>
</g>
<g>
</g>
<g>
</g>
</svg>
