<svg height="512" viewBox="0 0 64 64" width="512" xmlns="http://www.w3.org/2000/svg"><g id="Filled_outline" data-name="Filled outline"><path d="m18 21a1 1 0 0 1 -1-1v-2a1 1 0 0 1 2 0v2a1 1 0 0 1 -1 1z" fill="#d3843d"/><path d="m46 21a1 1 0 0 1 -1-1v-2a1 1 0 0 1 2 0v2a1 1 0 0 1 -1 1z" fill="#d3843d"/><path d="m61 36h-58v22c3.624 0 3.624 3 7.247 3s3.624-3 7.247-3 3.624 3 7.247 3 3.625-3 7.249-3 3.626 3 7.252 3 3.625-3 7.249-3 3.628 3 7.255 3 3.627-3 7.254-3z" fill="#ceac9a"/><path d="m8 48h-2v-9h5v2h-3z" fill="#f4f4e6"/><path d="m58 45h-2v-4h-4v-2h6z" fill="#f4f4e6"/><path d="m11 32h14v4h-14z" fill="#5a6470"/><path d="m25 32h-14l-2-4h18z" fill="#7d8d9c"/><path d="m17 20h2a8 8 0 0 1 8 8 0 0 0 0 1 0 0h-18a0 0 0 0 1 0 0 8 8 0 0 1 8-8z" fill="#cfdfe8"/><path d="m6 27h24v2h-24z" fill="#5a6470"/><path d="m39 32h14v4h-14z" fill="#5a6470"/><path d="m53 32h-14l-2-4h18z" fill="#7d8d9c"/><path d="m45 20h2a8 8 0 0 1 8 8 0 0 0 0 1 0 0h-18a0 0 0 0 1 0 0 8 8 0 0 1 8-8z" fill="#cfdfe8"/><path d="m34 27h24v2h-24z" fill="#5a6470"/><path d="m61 13h-58l6-6h46z" fill="#fcf05a"/><path d="m9 3h46v4h-46z" fill="#5a6470"/><g fill="#995f5b"><path d="m17 48h2v10h-2z"/><path d="m24 45h2v16h-2z"/><path d="m28.995 54h6v2h-6z" transform="matrix(.001 -1 1 .001 -23.052 86.915)"/><path d="m46 47h2v11h-2z"/><path d="m53 51h2v10h-2z"/></g><path d="m61 35h-7v-2.764l1.618-3.236h2.382v-2h-2.059a9.01 9.01 0 0 0 -8.941-8v-1a1 1 0 0 0 -2 0v1a9.01 9.01 0 0 0 -8.941 8h-2.059v2h2.382l1.618 3.236v2.764h-12v-2.764l1.618-3.236h2.382v-2h-2.059a9.01 9.01 0 0 0 -8.941-8v-1a1 1 0 0 0 -2 0v1a9.01 9.01 0 0 0 -8.941 8h-2.059v2h2.382l1.618 3.236v2.764h-7a1 1 0 0 0 -1 1v22a1 1 0 0 0 1 1 4.113 4.113 0 0 1 2.986 1.271 6.115 6.115 0 0 0 8.523 0 4.143 4.143 0 0 1 5.971 0 6.116 6.116 0 0 0 8.524 0 4.148 4.148 0 0 1 5.975 0 6.119 6.119 0 0 0 8.526 0 4.148 4.148 0 0 1 5.975 0 6.126 6.126 0 0 0 8.531 0 4.118 4.118 0 0 1 2.989-1.271 1 1 0 0 0 1-1v-22a1 1 0 0 0 -1-1zm-22.382-6h14.764l-1 2h-12.764zm6.382-8h2a7.011 7.011 0 0 1 6.929 6h-15.858a7.011 7.011 0 0 1 6.929-6zm-5 12h12v2h-12zm-29.382-4h14.764l-1 2h-12.764zm6.382-8h2a7.011 7.011 0 0 1 6.929 6h-15.858a7.011 7.011 0 0 1 6.929-6zm-5 12h12v2h-12zm48 24.074a6.349 6.349 0 0 0 -3.265 1.655 5.214 5.214 0 0 1 -1.735 1.087v-8.816h-2v8.936a4.482 4.482 0 0 1 -2.244-1.207 6.709 6.709 0 0 0 -2.756-1.55v-10.179h-2v10.027a6.208 6.208 0 0 0 -3.771 1.7 4.147 4.147 0 0 1 -5.975 0 6.4 6.4 0 0 0 -3.262-1.646l.008-5.081h-2l-.008 5.084a6.379 6.379 0 0 0 -3.263 1.646 5.23 5.23 0 0 1 -1.729 1.084v-14.814h-2v14.937a4.482 4.482 0 0 1 -2.244-1.207 6.688 6.688 0 0 0 -2.756-1.552v-9.178h-2v9.027a6.2 6.2 0 0 0 -3.767 1.7 4.143 4.143 0 0 1 -5.971 0 6.343 6.343 0 0 0 -3.262-1.653v-20.074h56z"/><path d="m6 48h2v-7h3v-2h-5z"/><path d="m52 41h4v4h2v-6h-6z"/><path d="m55 2h-46a1 1 0 0 0 -1 1v3.586l-5.707 5.707a1 1 0 0 0 .707 1.707h58a1 1 0 0 0 .707-1.707l-5.707-5.707v-3.586a1 1 0 0 0 -1-1zm-45 2h44v2h-44zm-4.586 8 4-4h45.172l4 4z"/></g></svg>