<svg id="Capa_1" enable-background="new 0 0 511 511" height="512" viewBox="0 0 511 511" width="512" xmlns="http://www.w3.org/2000/svg"><g><g><g><path d="m203.224 52.836h195.014v405.329h-195.014z" fill="#e4e8ed"/></g><g><path d="m225.724 435.519v-382.684h-22.5v405.329h195.014v-22.645z" fill="#c8d1da"/></g><g><path d="m203.224 52.836h195.014v60.333h-195.014z" fill="#9eb6f4"/></g><g><path d="m225.724 89.667v-36.832h-22.5v60.333h195.014v-23.501z" fill="#6e91ef"/></g><g><path d="m113.25 458.164v-277.986l89.974-67.01v344.996z" fill="#c8d1da"/></g><g><path d="m135.013 435.364v-271.394l-21.763 16.208v277.986h89.974v-22.8z" fill="#adb9c8"/></g><g><path d="m232.973 458.164v-75.005h134.515v75.005" fill="#9eb6f4"/></g><g><path d="m255.974 436.511v-53.352h-23.001v75.005h134.515v-21.653z" fill="#6e91ef"/></g><g><circle cx="52.667" cy="382.793" fill="#9ce3bf" r="29.749"/></g><g><path d="m67.667 397.928c-16.43 0-29.749-13.319-29.749-29.749 0-4.52 1.013-8.801 2.816-12.637-10.487 4.599-17.816 15.066-17.816 27.251 0 16.43 13.319 29.749 29.749 29.749 11.91 0 22.181-7.001 26.933-17.111-3.654 1.602-7.688 2.497-11.933 2.497z" fill="#52cd8d"/></g><g><circle cx="458.001" cy="382.793" fill="#9ce3bf" r="29.749"/></g><g><path d="m473.001 397.928c-16.43 0-29.749-13.319-29.749-29.749 0-4.52 1.013-8.801 2.816-12.637-10.487 4.599-17.816 15.066-17.816 27.251 0 16.43 13.319 29.749 29.749 29.749 11.91 0 22.181-7.001 26.933-17.111-3.654 1.602-7.688 2.497-11.933 2.497z" fill="#52cd8d"/></g><g><path d="m225 105.668h173.238v15h-173.238z" fill="#fff"/></g><g><path d="m113.25 180.678h66.75v15h-66.75z" fill="#fff"/></g><g><path d="m143 218.181h29.997v29.997h-29.997z" fill="#9eb6f4"/></g><g><path d="m143 278.182h29.997v29.997h-29.997z" fill="#9eb6f4"/></g><g><path d="m143 338.182h29.997v29.997h-29.997z" fill="#9eb6f4"/></g><g><path d="m143 398.183h29.997v29.997h-29.997z" fill="#9eb6f4"/></g><g><path d="m255 172.511h-22.027v-29.332h134.515v29.332h-97.488" fill="#cfdbfa"/></g><g><path d="m236.58 172.511h-3.607v-29.332h22.027v29.332h-15.964" fill="#9eb6f4"/></g><g><path d="m345 203.523h22.488v29.332h-134.515v-29.332h97.758" fill="#cfdbfa"/></g><g><path d="m251.318 203.523h3.682v29.332h-22.027v-29.332h16.008" fill="#9eb6f4"/></g><g><path d="m270 262.866h97.488v30.332h-134.515v-30.332h22.027" fill="#cfdbfa"/></g><g><path d="m239.174 262.866h16.326v30.332h-22.527v-30.332h3.689" fill="#9eb6f4"/></g><g><path d="m345 323.209h22.488v30.333h-134.515v-30.333h97.027" fill="#cfdbfa"/></g><g><path d="m251.734 323.209h3.766v30.333h-22.527v-30.333h16.249" fill="#9eb6f4"/></g><g><path d="m263.231 75h15v15h-15z" fill="#fff"/></g><g><path d="m293.231 75h15v15h-15z" fill="#fff"/></g><g><path d="m323.231 75h15v15h-15z" fill="#fff"/></g></g><g><path d="m465.5 450.664v-31.381c16.957-3.48 29.749-18.52 29.749-36.49 0-20.539-16.709-37.249-37.249-37.249s-37.249 16.71-37.249 37.249c0 17.971 12.792 33.01 29.749 36.49v31.381h-44.762v-405.328h-210.014v64.066l-89.974 67.01v274.252h-45.583v-31.381c16.957-3.48 29.749-18.52 29.749-36.49 0-20.539-16.71-37.249-37.249-37.249s-37.249 16.71-37.249 37.249c0 17.971 12.792 33.01 29.749 36.49v31.381h-45.167v15h511v-15zm-29.748-67.871c0-12.269 9.98-22.249 22.249-22.249s22.249 9.98 22.249 22.249-9.98 22.249-22.249 22.249-22.249-9.98-22.249-22.249zm-405.334 0c0-12.269 9.98-22.249 22.249-22.249s22.249 9.98 22.249 22.249-9.981 22.249-22.249 22.249-22.249-9.98-22.249-22.249zm90.332-200.114 74.974-54.573v262.054h15v-276.992-14.938-37.894h180.014v390.328h-15.75v-75.005h-149.515v75.005h-14.749v-15.504h-15v15.504h-74.974zm239.238 267.985h-119.515v-60.005h119.515z"/><path d="m195.724 405.16h15v15h-15z"/><path d="m135.5 210.681v44.997h44.997v-44.997zm29.997 29.997h-14.997v-14.997h14.997z"/><path d="m135.5 315.679h44.997v-44.997h-44.997zm15-29.997h14.997v14.997h-14.997z"/><path d="m135.5 375.679h44.997v-44.996h-44.997zm15-29.996h14.997v14.996h-14.997z"/><path d="m135.5 435.68h44.997v-44.997h-44.997zm15-29.997h14.997v14.997h-14.997z"/><path d="m255 165.012h-14.527v-14.333h119.515v14.333h-89.988v15h104.988v-44.333h-149.515v44.333h29.527z"/><path d="m374.988 196.022h-29.988v15h14.988v14.332h-119.515v-14.332h90.258v-15h-105.258v44.332h149.515z"/><path d="m374.988 255.365h-104.988v15h89.988v15.333h-119.515v-15.333h14.527v-15h-29.527v45.333h149.515z"/><path d="m374.988 315.709h-29.988v15h14.988v15.333h-119.515v-15.333h89.527v-15h-104.527v45.333h149.515z"/></g></g></svg>