<svg id="Layer_3" enable-background="new 0 0 64 64" height="512" viewBox="0 0 64 64" width="512" xmlns="http://www.w3.org/2000/svg"><g><g><path d="m42 44h20v-42h-60v42h20" fill="#f097d0"/></g><g><path d="m2 34.021c5.613 3.129 12.522 4.979 20 4.979 18.778 0 34-11.641 34-26 0-3.933-1.148-7.659-3.192-11h-50.808z" fill="#78b75b"/></g><g><path d="m2 26.444c4.388 1.638 9.306 2.556 14.5 2.556 18.502 0 33.5-11.641 33.5-26 0-.335-.016-.668-.033-1h-47.967z" fill="#f5b953"/></g><g><path d="m2 18.605c1.952.255 3.955.395 6 .395 14.861 0 27.616-7.005 33.112-17h-39.112z" fill="#e47c6e"/></g><g><path d="m52 62v-8h-40v8" fill="#f5b953"/></g><g><path d="m12 54v2.744c3.474 1.996 8.451 3.256 14 3.256 7.789 0 14.475-2.47 17.408-6z" fill="#f9d18b"/></g><g><path d="m39 37c-1.105 0-2-.895-2-2v-2c0-1.105.895-2 2-2 1.105 0 2 .895 2 2v2c0 1.105-.895 2-2 2z" fill="#4d5d7a"/></g><g><path d="m25 37c-1.105 0-2-.895-2-2v-2c0-1.105.895-2 2-2 1.105 0 2 .895 2 2v2c0 1.105-.895 2-2 2z" fill="#4d5d7a"/></g><g><path d="m26 54v-6l-14-14 3-3 11 11h3 6 3l11-11 3 3-14 14v6" fill="#3d98f7"/></g><g><path d="m29 41v2c0 1.657 1.343 3 3 3 1.657 0 3-1.343 3-3v-2" fill="#efbe9a"/></g><g><path d="m46.879 31.879h4.243v4.243h-4.243z" fill="#efbe9a" transform="matrix(.707 -.707 .707 .707 -9.69 44.607)"/></g><g><path d="m12.879 31.879h4.243v4.243h-4.243z" fill="#efbe9a" transform="matrix(.707 -.707 .707 .707 -19.648 20.565)"/></g><g><path d="m37 37c0 2.761-2.239 5-5 5-2.761 0-5-2.239-5-5v-7c0-1.105.895-2 2-2h6c1.105 0 2 .895 2 2z" fill="#efbe9a"/></g><g><path d="m62 45h-20v-2h19v-40h-58v40h19v2h-20c-.553 0-1-.447-1-1v-42c0-.553.447-1 1-1h60c.553 0 1 .447 1 1v42c0 .553-.447 1-1 1z"/></g><g><path d="m32 43c-3.309 0-6-2.691-6-6v-7c0-1.654 1.346-3 3-3h6c1.654 0 3 1.346 3 3v7c0 3.309-2.691 6-6 6zm-3-14c-.552 0-1 .448-1 1v7c0 2.206 1.794 4 4 4s4-1.794 4-4v-7c0-.552-.448-1-1-1z"/></g><g><path d="m32 47c-2.206 0-4-1.794-4-4v-1h2v1c0 1.103.897 2 2 2s2-.897 2-2v-1h2v1c0 2.206-1.794 4-4 4z"/></g><g><path d="m39 54h-2v-6c0-.266.105-.52.293-.707l13.293-13.293-1.586-1.586-10.293 10.293c-.187.188-.441.293-.707.293h-3v-2h2.586l10.707-10.707c.391-.391 1.023-.391 1.414 0l3 3c.391.391.391 1.023 0 1.414l-13.707 13.707z"/></g><g><path d="m27 54h-2v-5.586l-13.707-13.707c-.391-.391-.391-1.023 0-1.414l3-3c.391-.391 1.023-.391 1.414 0l10.707 10.707h2.586v2h-3c-.266 0-.52-.105-.707-.293l-10.293-10.293-1.586 1.586 13.293 13.293c.188.187.293.441.293.707z"/></g><g><path d="m53 63h-2v-8h-38v8h-2v-9c0-.553.447-1 1-1h40c.553 0 1 .447 1 1z"/></g><g><path d="m46.5 33.379h2v4.243h-2z" transform="matrix(.707 -.707 .707 .707 -11.19 43.985)"/></g><g><path d="m14.379 34.5h4.243v2h-4.243z" transform="matrix(.707 -.707 .707 .707 -20.27 22.065)"/></g><g><path d="m39 38c-1.654 0-3-1.346-3-3v-2c0-1.654 1.346-3 3-3s3 1.346 3 3v2c0 1.654-1.346 3-3 3zm0-6c-.552 0-1 .448-1 1v2c0 .552.448 1 1 1s1-.448 1-1v-2c0-.552-.448-1-1-1z"/></g><g><path d="m25 38c-1.654 0-3-1.346-3-3v-2c0-1.654 1.346-3 3-3s3 1.346 3 3v2c0 1.654-1.346 3-3 3zm0-6c-.552 0-1 .448-1 1v2c0 .552.448 1 1 1s1-.448 1-1v-2c0-.552-.448-1-1-1z"/></g><g><path d="m41 31h-2c0-3.309-2.691-6-6-6h-2c-3.309 0-6 2.691-6 6h-2c0-4.411 3.589-8 8-8h2c4.411 0 8 3.589 8 8z"/></g><g><path d="m6 23h2v21h-2z"/></g><g><path d="m6 19h2v2h-2z"/></g><g><path d="m6 15h2v2h-2z"/></g><g><path d="m6 11h2v2h-2z"/></g><g><path d="m6 7h2v2h-2z"/></g><g><path d="m18 27h2v8h-2z"/></g><g><path d="m18 23h2v2h-2z"/></g><g><path d="m18 19h2v2h-2z"/></g><g><path d="m22 23h2v2h-2z"/></g><g><path d="m22 19h2v2h-2z"/></g><g><path d="m22 15h2v2h-2z"/></g><g><path d="m22 11h2v2h-2z"/></g><g><path d="m22 7h2v2h-2z"/></g><g><path d="m27 11h2v2h-2z"/></g><g><path d="m27 7h2v2h-2z"/></g><g><path d="m31 19h2v5h-2z"/></g><g><path d="m31 15h2v2h-2z"/></g><g><path d="m35 15h2v9h-2z"/></g><g><path d="m35 11h2v2h-2z"/></g><g><path d="m35 7h2v2h-2z"/></g><g><path d="m39 15h2v6h-2z"/></g><g><path d="m39 11h2v2h-2z"/></g><g><path d="m43 23h2v8h-2z"/></g><g><path d="m43 19h2v2h-2z"/></g><g><path d="m47 27h2v5h-2z"/></g><g><path d="m47 23h2v2h-2z"/></g><g><path d="m47 19h2v2h-2z"/></g><g><path d="m47 15h2v2h-2z"/></g><g><path d="m47 11h2v2h-2z"/></g><g><path d="m51 29h2v5h-2z"/></g><g><path d="m51 37h2v7h-2z"/></g><g><path d="m51 25h2v2h-2z"/></g><g><path d="m51 21h2v2h-2z"/></g><g><path d="m51 17h2v2h-2z"/></g><g><path d="m55 23h2v21h-2z"/></g><g><path d="m55 19h2v2h-2z"/></g><g><path d="m55 15h2v2h-2z"/></g><g><path d="m55 11h2v2h-2z"/></g><g><path d="m55 7h2v2h-2z"/></g><g><path d="m14 25h2v7h-2z"/></g><g><path d="m14 21h2v2h-2z"/></g><g><path d="m14 17h2v2h-2z"/></g><g><path d="m14 13h2v2h-2z"/></g><g><path d="m14 9h2v2h-2z"/></g><g><path d="m10 33h2v11h-2z"/></g><g><path d="m10 29h2v2h-2z"/></g><g><path d="m10 25h2v2h-2z"/></g><g><path d="m10 21h2v2h-2z"/></g><g><path d="m10 17h2v2h-2z"/></g><g><path d="m14 37h2v7h-2z"/></g><g><path d="m18 41h2v3h-2z"/></g><g><path d="m27 15h2v10h-2z"/></g></g></svg>