<svg id="Capa_1" enable-background="new 0 0 512 512" height="512" viewBox="0 0 512 512" width="512" xmlns="http://www.w3.org/2000/svg"><g><g><g clip-rule="evenodd" fill-rule="evenodd"><path d="m474.5 331.499c0-120.831-97.983-218.499-218.5-218.499s-218.5 97.669-218.5 218.5h437z" fill="#e4e8ed"/><path d="m7.5 331.499v60h497v-60c-165.667 0-331.333 0-497 0z" fill="#fcc062"/><path d="m127.5 451.5v-60h-60v60zm317 0v-60h-60v60z" fill="#fcc062"/><path d="m286 90.5c0-16.568-13.431-30-30-30s-30 13.431-30 30c0 9.409 4.333 17.804 11.11 23.305 12.557-1.075 25.222-1.075 37.779 0 6.778-5.501 11.111-13.896 11.111-23.305z" fill="#e4e8ed"/><path d="m237.111 113.805c12.557-1.075 25.222-1.075 37.779 0 4.455-3.615 7.853-8.482 9.66-14.065-11.628-1.418-23.35-1.975-35.059-1.649-3.533-13.781 2.972-29.421 17.76-35.408-19.481-7.886-41.251 6.387-41.251 27.817 0 9.077 4.075 17.596 11.111 23.305z" fill="#c8d1da"/><path d="m7.5 331.499h22.5v60h-22.5z" fill="#fbb03b"/><path d="m67.5 391.5v60h22.5v-45h37.5v-15c-20 0-40 0-60 0z" fill="#fbb03b"/><path d="m384.5 391.5v60h22.5v-45h37.5v-15c-20 0-40 0-60 0z" fill="#fbb03b"/><path d="m267.25 113.284c-124.883-6.336-229.75 92.999-229.75 218.215h437c0-5.043-.186-10.042-.522-15h-413.46c7.46-110.092 96.394-197.614 206.732-203.215z" fill="#c8d1da"/></g><g><path d="m108.416 309h-15v-15h15zm-30.001 0h-15v-15h15zm338.335-36.854c-28.421-71.475-88.515-114.147-160.75-114.147v-15c39.592 0 76.848 12.027 107.74 34.78 29.262 21.554 52.413 52.268 66.949 88.823zm-175.75-114.147h-15v-15h15z" fill="#fff"/></g><g><path d="m479 368.999h-45v-15h45zm-60 0h-15v-15h15z" fill="#fff"/></g></g><g><path d="m15 338.999h233.5v-15h-248.5v30h15z"/><path d="m263.5 323.999v15h233.5v45.001h-482v-15.001h-15v30.001h512v-75.001z"/><path d="m101.774 187.52-10.962-10.238c-33.964 36.362-54.583 81.646-59.626 130.955l14.922 1.527c4.707-46.025 23.956-88.295 55.666-122.244z"/><path d="m112.017 177.276c39.199-36.612 90.333-56.776 143.983-56.776 108.621 0 198.855 81.365 209.893 189.264l14.922-1.527c-5.662-55.345-31.557-106.513-72.915-144.077-33.374-30.313-74.649-49.699-118.705-56.21 2.793-5.307 4.305-11.266 4.305-17.449 0-20.678-16.822-37.5-37.5-37.5s-37.5 16.822-37.5 37.5c0 6.18 1.51 12.136 4.3 17.44-45.117 6.654-87.214 26.797-121.022 58.375zm121.483-86.776c0-12.406 10.093-22.5 22.5-22.5s22.5 10.094 22.5 22.5c0 5.871-2.262 11.411-6.279 15.583-5.379-.384-10.789-.583-16.221-.583-5.436 0-10.847.195-16.226.578-4.013-4.172-6.274-9.71-6.274-15.578z"/><path d="m392 413.999h-15v45.001h30v-15h-15z"/><path d="m75 413.999h-15v45.001h30v-15h-15z"/><path d="m437 444h-15v15h30v-45.001h-15z"/><path d="m120 444h-15v15h30v-45.001h-15z"/><path d="m263.5 214.75h15v15h-15z"/><path d="m233.5 214.75h15v15h-15z"/></g></g></svg>