<?xml version="1.0" encoding="iso-8859-1"?>
<!-- Generator: Adobe Illustrator 19.0.0, SVG Export Plug-In . SVG Version: 6.00 Build 0)  -->
<svg version="1.1" id="Capa_1" xmlns="http://www.w3.org/2000/svg" xmlns:xlink="http://www.w3.org/1999/xlink" x="0px" y="0px"
	 viewBox="0 0 512 512" style="enable-background:new 0 0 512 512;" xml:space="preserve">
<path style="fill:#E5E5E5;" d="M384.576,469.333h-8.533v-128h-17.067v128h-8.533c-18.85,0-34.133,15.283-34.133,34.133h102.4
	C418.709,484.617,403.434,469.333,384.576,469.333z"/>
<rect x="359.001" y="341.333" style="fill:#DEDEDE;" width="17.067" height="34.133"/>
<path id="SVGCleanerId_0" style="fill:#E5E5E5;" d="M367.509,358.4L367.509,358.4c-30.089,0-56.32-20.48-63.616-49.673l-1.536-6.135
	c-2.057-8.226-2.5-16.777-1.297-25.173l15.249-106.752h102.4l15.249,106.752c1.203,8.397,0.759,16.947-1.297,25.173l-1.536,6.135
	C423.829,337.92,397.606,358.4,367.509,358.4z"/>
<g>
	<path id="SVGCleanerId_0_1_" style="fill:#E5E5E5;" d="M367.509,358.4L367.509,358.4c-30.089,0-56.32-20.48-63.616-49.673
		l-1.536-6.135c-2.057-8.226-2.5-16.777-1.297-25.173l15.249-106.752h102.4l15.249,106.752c1.203,8.397,0.759,16.947-1.297,25.173
		l-1.536,6.135C423.829,337.92,397.606,358.4,367.509,358.4z"/>
</g>
<path style="fill:#DE4C3C;" d="M300.497,290.133c0.213,4.207,0.836,8.38,1.86,12.459l1.536,6.135
	c8.772,35.132,44.373,56.499,79.505,47.727c23.501-5.871,41.856-24.226,47.727-47.727l1.536-6.135
	c1.024-4.079,1.647-8.252,1.86-12.459H300.497z"/>
<path style="fill:#DEDEDE;" d="M433.958,277.419l-10.522-73.643c-12.544,32.307-31.582,61.696-55.927,86.357h66.987
	C434.735,285.884,434.555,281.626,433.958,277.419z"/>
<path style="fill:#C94536;" d="M314.543,331.187c21.094,29.321,61.969,35.994,91.29,14.899
	c12.595-9.062,21.555-22.298,25.293-37.359l1.536-6.135c0.512-2.048,0.922-4.113,1.229-6.187c0.299-1.971,0.486-3.959,0.606-5.973
	c0-0.111,0-0.213,0-0.324h-66.987C351.731,306.057,333.922,319.863,314.543,331.187z"/>
<path style="fill:#75462E;" d="M179.776,162.133V8.533h-51.2v153.6c-31.377,15.693-51.2,47.761-51.2,82.842v258.492h153.6V244.975
	C230.976,209.894,211.153,177.826,179.776,162.133z"/>
<rect x="128.601" y="51.2" style="fill:#DE4C3C;" width="51.2" height="76.8"/>
<path style="fill:#633B27;" d="M77.376,455.893v47.573h153.6V244.975c-0.06-10.803-2.022-21.513-5.794-31.642
	C185.792,344.747,120.367,418.987,77.376,455.893z"/>
<rect x="111.535" y="273.067" style="fill:#E5E5E5;" width="85.333" height="153.6"/>
<path d="M188.309,157.013V8.533c0-4.71-3.823-8.533-8.533-8.533h-51.2c-4.71,0-8.533,3.823-8.533,8.533v148.48
	c-31.744,17.877-51.328,51.533-51.2,87.962v258.492c0,4.71,3.823,8.533,8.533,8.533h153.6c4.71,0,8.533-3.823,8.533-8.533V244.975
	C239.637,208.546,220.053,174.891,188.309,157.013z M171.242,119.467h-34.133V59.733h34.133V119.467z M171.242,17.067v25.6h-34.133
	v-25.6H171.242z M222.442,494.933H85.909V244.975c-0.094-31.863,17.937-61.005,46.481-75.162c2.91-1.451,4.736-4.429,4.719-7.68
	v-25.6h34.133v25.6c0,3.234,1.826,6.195,4.719,7.637c28.561,14.157,46.592,43.324,46.481,75.204V494.933z"/>
<path d="M427.157,169.455c-0.597-4.198-4.198-7.322-8.448-7.322h-102.4c-4.241,0-7.842,3.123-8.448,7.322l-15.249,106.752
	c-1.348,9.489-0.836,19.14,1.51,28.433l1.536,6.135c7.441,29.926,32.683,52.096,63.317,55.612V460.8h-8.533
	c-23.552,0.026-42.641,19.115-42.667,42.667c0,4.71,3.823,8.533,8.533,8.533h102.4c4.71,0,8.533-3.823,8.533-8.533
	c-0.026-23.552-19.115-42.641-42.667-42.667h-8.533v-94.413c30.652-3.499,55.91-25.66,63.36-55.595l1.536-6.127
	c2.338-9.301,2.833-18.97,1.468-28.459L427.157,169.455z M408.716,494.933h-82.415c3.627-10.223,13.295-17.05,24.141-17.067h34.133
	C395.421,477.884,405.09,484.71,408.716,494.933z M323.707,179.2h87.603l14.225,99.422c0.145,0.998,0.196,1.988,0.282,2.978H309.226
	c0.085-0.99,0.137-1.98,0.282-2.978L323.707,179.2z M422.848,306.662c-7.646,30.566-38.622,49.135-69.188,41.489
	c-20.429-5.111-36.378-21.06-41.489-41.489l-1.536-6.144c-0.154-0.614-0.23-1.237-0.367-1.852h114.483
	c-0.137,0.623-0.213,1.246-0.367,1.86L422.848,306.662z"/>
<path d="M102.976,273.067v153.6c0,4.71,3.823,8.533,8.533,8.533h85.333c4.71,0,8.533-3.823,8.533-8.533v-153.6
	c0-4.71-3.823-8.533-8.533-8.533h-85.333C106.799,264.533,102.976,268.356,102.976,273.067z M120.042,281.6h68.267v136.533h-68.267
	C120.042,418.133,120.042,281.6,120.042,281.6z"/>
<g>
</g>
<g>
</g>
<g>
</g>
<g>
</g>
<g>
</g>
<g>
</g>
<g>
</g>
<g>
</g>
<g>
</g>
<g>
</g>
<g>
</g>
<g>
</g>
<g>
</g>
<g>
</g>
<g>
</g>
</svg>
